<?xml version="1.0" encoding="utf-8"?>
<!-- Uploaded to: SVG Repo, www.svgrepo.com, Generator: SVG Repo Mixer Tools -->
<svg width="800px" height="800px" viewBox="0 0 1024 1024" class="icon"  version="1.1" xmlns="http://www.w3.org/2000/svg"><path d="M752.499816 347.116531h82.799788c21.195467 0 38.362836 17.167369 38.362836 38.362836l25.447347 427.425931 6.521683 109.717711c0 21.163498-17.167369 38.362836-38.362836 38.362836h-710.351847c-21.163498 0-38.362836-17.199338-38.362836-38.362836l5.178983-86.731978 26.790047-450.411664c0-21.195467 17.199338-38.362836 38.362836-38.362836h563.613999z m-172.568824 289.639412l66.175892-66.175892-92.774125-12.276108-42.486841-83.407199-40.344916 84.462177-92.422466 14.641816 67.838282 64.449564-14.641816 92.422466 82.256315-44.596797 83.407199 42.51881-17.007524-92.038837z" fill="#5FCEFF" /><path d="M646.106884 570.580051l-66.175892 66.175892 17.007524 92.038837-83.407199-42.51881-82.256315 44.596797 14.641816-92.422466-67.838282-64.449564 92.422466-14.641816 40.344916-84.462177 42.486841 83.407199z" fill="#FF4893" /><path d="M867.268634 983.364166h-710.351847c-33.493953 0-60.741157-27.247204-60.741157-60.741157 0-0.44437 0.012788-0.888739 0.038363-1.333109l31.933864-536.549018c0.399613-33.151884 27.490169-60.002672 60.73796-60.002672h646.413787c33.244594 0 60.338347 26.847591 60.73796 60.002672l31.930667 536.555412c0.028772 0.441173 0.04156 0.882345 0.04156 1.326715 0 33.490756-27.247204 60.741157-60.741157 60.741157zM140.941863 923.147301a16.003696 16.003696 0 0 0 15.978121 15.460223h710.351846a16.003696 16.003696 0 0 0 15.974925-15.46342l-31.91788-536.334825a20.524117 20.524117 0 0 1-0.04156-1.329912c0-8.813862-7.170653-15.984515-15.984515-15.984515h-646.413786c-8.813862 0-15.984515 7.170653-15.984515 15.984515 0 0.44437-0.012788 0.885542-0.038363 1.329912l-31.924273 536.338022z" fill="#4F46A3" /><path d="M670.98838 445.101608a22.381518 22.381518 0 0 1-22.279217-20.549693L622.139702 100.031095a21.722956 21.722956 0 0 1-0.073529-1.825432c0-8.216041-5.012744-14.354094-9.494802-14.354094h-200.957322c-4.482058 0-9.494802 6.138054-9.494802 14.354094 0 0.607412-0.025575 1.21802-0.073529 1.825432l-26.566264 324.524017c-1.010221 12.317667-11.790178 21.508763-24.13342 20.472967a22.378321 22.378321 0 0 1-20.472967-24.133421l26.499129-323.696019c0.49552-32.132072 24.638531-58.100515 54.24505-58.100515h200.957322c29.606519 0 53.74953 25.97164 54.24505 58.100515l26.499129 323.696019a22.378321 22.378321 0 0 1-22.330367 24.20695zM895.785008 858.269352H128.400412a22.378321 22.378321 0 1 1 0-44.756642h767.384596a22.378321 22.378321 0 1 1 0 44.756642z" fill="#4F46A3" /><path d="M752.566951 370.294078a22.378321 22.378321 0 0 1-22.186507-19.689726l-0.095907-0.799226-19.213387-176.35076a4.303031 4.303031 0 0 0-0.895133-0.089513h-146.037726c-0.354856 0-0.655365 0.038363-0.895133 0.09271l-19.309294 177.146789a22.378321 22.378321 0 1 1-44.430558-5.380388l0.095907-0.799225 19.043951-174.85461c0.831195-22.717193 20.920533-40.961918 45.495127-40.961918h146.037726c24.57779 0 44.667129 18.244725 45.49193 40.961918l19.143055 175.653835a22.378321 22.378321 0 0 1-22.244051 25.070114zM431.278199 753.251088a22.371927 22.371927 0 0 1-22.103387-25.882127l12.8004-80.798526-59.308945-56.345415a22.375124 22.375124 0 0 1 11.911661-38.327671l80.801723-12.800399 35.274628-73.845263a22.375124 22.375124 0 0 1 40.13392-0.511504l37.144816 72.921357 81.108626 10.732004a22.378321 22.378321 0 0 1 12.889913 38.00798l-57.857551 57.85755 14.5555 78.758902c0.489126 1.841416 0.748075 3.778739 0.748075 5.776804a22.378321 22.378321 0 0 1-22.371927 22.378321c-3.56135 0.137467-7.001218-0.792832-10.23009-2.442434l-72.924554-37.173588-71.911136 38.986232a22.314383 22.314383 0 0 1-10.661672 2.707777z m-4.910443-164.244089l34.964528 33.21902a22.381518 22.381518 0 0 1 6.687921 19.728088l-7.544691 47.633855 42.390934-22.982536a22.352746 22.352746 0 0 1 20.83102-0.265343l42.995149 21.91477-8.765908-47.43245a22.394306 22.394306 0 0 1 6.18281-19.894327l34.117349-34.114152-47.825669-6.326671a22.371927 22.371927 0 0 1-17.004327-12.029946l-21.901983-42.991952-20.795854 43.538622a22.378321 22.378321 0 0 1-16.69103 12.455134l-47.640249 7.547888z" fill="#4F46A3" /><path d="M218.409216 668.347738a22.378321 22.378321 0 0 1-22.339958-24.027923l1.582467-21.425644c0.911117-12.320864 11.68468-21.559914 23.967182-20.671175a22.378321 22.378321 0 0 1 20.667978 23.967182l-1.582467 21.425644a22.384715 22.384715 0 0 1-22.295202 20.731916z" fill="#FFFFFF" /><path d="M224.627192 584.147707a22.378321 22.378321 0 0 1-22.339958-24.027923l9.836871-133.227736a22.378321 22.378321 0 0 1 44.635159 3.299204l-9.83687 133.227736a22.378321 22.378321 0 0 1-22.295202 20.728719z" fill="#FFFFFF" /></svg>