<?xml version="1.0" encoding="iso-8859-1"?>
<!-- Uploaded to: SVG Repo, www.svgrepo.com, Generator: SVG Repo Mixer Tools -->
<svg height="800px" width="800px" version="1.1" id="Layer_1" xmlns="http://www.w3.org/2000/svg" xmlns:xlink="http://www.w3.org/1999/xlink" 
	 viewBox="0 0 511.978 511.978" xml:space="preserve">
<g>
	<path style="fill:#967ADC;" d="M75.797,58.107c1.797,3.609,5.499,5.891,9.53,5.891h341.33c4.031,0,7.734-2.281,9.531-5.891
		l21.343-42.67c1.641-3.305,1.469-7.234-0.469-10.375C455.109,1.915,451.687,0,447.984,0H64c-3.703,0-7.125,1.914-9.078,5.062
		c-1.938,3.141-2.125,7.07-0.469,10.375L75.797,58.107z"/>
	<path style="fill:#967ADC;" d="M436.188,453.888c-1.797-3.625-5.5-5.906-9.531-5.906H85.327c-4.031,0-7.733,2.281-9.53,5.906
		l-21.343,42.653c-1.656,3.312-1.469,7.234,0.469,10.375c1.953,3.156,5.375,5.062,9.078,5.062h383.984
		c3.703,0,7.125-1.906,9.078-5.062c1.938-3.141,2.109-7.062,0.469-10.375L436.188,453.888z"/>
</g>
<g>
	<path style="fill:#AC92EB;" d="M127.997,63.998c-5.89,0-10.671-4.773-10.671-10.664V42.671c0-5.891,4.781-10.672,10.671-10.672
		c5.891,0,10.671,4.781,10.671,10.672v10.663C138.669,59.224,133.888,63.998,127.997,63.998z"/>
	<path style="fill:#AC92EB;" d="M170.667,63.998c-5.89,0-10.671-4.773-10.671-10.664V42.671c0-5.891,4.781-10.672,10.671-10.672
		c5.891,0,10.656,4.781,10.656,10.672v10.663C181.323,59.224,176.558,63.998,170.667,63.998z"/>
	<path style="fill:#AC92EB;" d="M213.322,63.998c-5.89,0-10.656-4.773-10.656-10.664V42.671c0-5.891,4.766-10.672,10.656-10.672
		c5.891,0,10.671,4.781,10.671,10.672v10.663C223.993,59.224,219.213,63.998,213.322,63.998z"/>
	<path style="fill:#AC92EB;" d="M255.992,63.998c-5.89,0-10.671-4.773-10.671-10.664V42.671c0-5.891,4.781-10.672,10.671-10.672
		c5.891,0,10.672,4.781,10.672,10.672v10.663C266.664,59.224,261.883,63.998,255.992,63.998z"/>
	<path style="fill:#AC92EB;" d="M298.663,63.998c-5.891,0-10.672-4.773-10.672-10.664V42.671c0-5.891,4.781-10.672,10.672-10.672
		s10.656,4.781,10.656,10.672v10.663C309.319,59.224,304.553,63.998,298.663,63.998z"/>
	<path style="fill:#AC92EB;" d="M341.316,63.998c-5.891,0-10.656-4.773-10.656-10.664V42.671c0-5.891,4.766-10.672,10.656-10.672
		s10.672,4.781,10.672,10.672v10.663C351.988,59.224,347.207,63.998,341.316,63.998z"/>
	<path style="fill:#AC92EB;" d="M383.986,63.998c-5.89,0-10.671-4.773-10.671-10.664V42.671c0-5.891,4.781-10.672,10.671-10.672
		c5.891,0,10.672,4.781,10.672,10.672v10.663C394.658,59.224,389.877,63.998,383.986,63.998z"/>
	<path style="fill:#AC92EB;" d="M383.986,479.98c-5.89,0-10.671-4.781-10.671-10.656v-10.67c0-5.891,4.781-10.672,10.671-10.672
		c5.891,0,10.672,4.781,10.672,10.672v10.67C394.658,475.199,389.877,479.98,383.986,479.98z"/>
	<path style="fill:#AC92EB;" d="M341.316,479.98c-5.891,0-10.656-4.781-10.656-10.656v-10.67c0-5.891,4.766-10.672,10.656-10.672
		s10.672,4.781,10.672,10.672v10.67C351.988,475.199,347.207,479.98,341.316,479.98z"/>
	<path style="fill:#AC92EB;" d="M298.663,479.98c-5.891,0-10.672-4.781-10.672-10.656v-10.67c0-5.891,4.781-10.672,10.672-10.672
		s10.656,4.781,10.656,10.672v10.67C309.319,475.199,304.553,479.98,298.663,479.98z"/>
	<path style="fill:#AC92EB;" d="M255.992,479.98c-5.89,0-10.671-4.781-10.671-10.656v-10.67c0-5.891,4.781-10.672,10.671-10.672
		c5.891,0,10.672,4.781,10.672,10.672v10.67C266.664,475.199,261.883,479.98,255.992,479.98z"/>
	<path style="fill:#AC92EB;" d="M213.322,479.98c-5.89,0-10.656-4.781-10.656-10.656v-10.67c0-5.891,4.766-10.672,10.656-10.672
		c5.891,0,10.671,4.781,10.671,10.672v10.67C223.993,475.199,219.213,479.98,213.322,479.98z"/>
	<path style="fill:#AC92EB;" d="M170.667,479.98c-5.89,0-10.671-4.781-10.671-10.656v-10.67c0-5.891,4.781-10.672,10.671-10.672
		c5.891,0,10.656,4.781,10.656,10.672v10.67C181.323,475.199,176.558,479.98,170.667,479.98z"/>
	<path style="fill:#AC92EB;" d="M127.997,479.98c-5.89,0-10.671-4.781-10.671-10.656v-10.67c0-5.891,4.781-10.672,10.671-10.672
		c5.891,0,10.671,4.781,10.671,10.672v10.67C138.669,475.199,133.888,479.98,127.997,479.98z"/>
	<path style="fill:#AC92EB;" d="M437.001,50.749c-1.188-4.75-5.453-8.078-10.344-8.078H85.327c-5.203,0-9.655,3.766-10.515,8.906
		C74.374,54.232,64,117.909,64,245.326c0,127.19,10.64,213.781,10.75,214.656c0.672,5.326,5.203,9.342,10.577,9.342h341.33
		c5.203,0,9.656-3.781,10.516-8.921c0.438-2.64,10.812-66.575,10.812-215.077C447.984,96.394,437.454,52.538,437.001,50.749z"/>
</g>
<path style="fill:#E6E9ED;" d="M64,245.326c0,26.851,0.469,51.865,1.218,74.661H447.03c0.594-22.03,0.953-46.857,0.953-74.661
	c0-19.538-0.188-37.264-0.5-53.333H64.641C64.235,208.328,64,226.093,64,245.326z"/>
<path style="fill:#F5F7FA;" d="M255.992,127.995c-70.575,0-127.995,57.42-127.995,127.995c0,70.574,57.419,127.994,127.995,127.994
	s127.994-57.42,127.994-127.994C383.986,185.415,326.567,127.995,255.992,127.995z"/>
<g>
	<path style="fill:#48CFAD;" d="M255.992,341.329c-29.405,0-53.326-23.935-53.326-53.341c0-29.404,23.92-53.326,53.326-53.326
		s53.327,23.922,53.327,53.326C309.319,317.394,285.397,341.329,255.992,341.329z"/>
	<path style="fill:#48CFAD;" d="M255.992,223.991c-14.703,0-26.671-11.96-26.671-26.663c0-14.702,11.968-26.663,26.671-26.663
		c14.702,0,26.671,11.961,26.671,26.663C282.663,212.031,270.694,223.991,255.992,223.991z"/>
	<path style="fill:#48CFAD;" d="M196.307,244.302c-7.125,0-13.828-2.773-18.858-7.812c-10.406-10.397-10.406-27.318,0-37.709
		c5.031-5.038,11.734-7.812,18.858-7.812c7.109,0,13.812,2.773,18.843,7.812c10.405,10.398,10.405,27.312,0,37.709
		C210.119,241.529,203.416,244.302,196.307,244.302z"/>
	<path style="fill:#48CFAD;" d="M315.677,244.302c-7.124,0-13.812-2.773-18.858-7.812c-5.031-5.038-7.812-11.733-7.812-18.857
		c0-7.117,2.781-13.82,7.812-18.852c5.047-5.038,11.734-7.812,18.858-7.812c7.125,0,13.827,2.773,18.857,7.812
		c5.031,5.031,7.812,11.734,7.812,18.852c0,7.124-2.781,13.819-7.812,18.857C329.505,241.529,322.802,244.302,315.677,244.302z"/>
</g>
</svg>